<?xml version="1.0" encoding="utf-8"?>
<!-- Generator: Adobe Illustrator 22.0.1, SVG Export Plug-In . SVG Version: 6.00 Build 0)  -->
<svg version="1.1" id="Layer_1" xmlns="http://www.w3.org/2000/svg" xmlns:xlink="http://www.w3.org/1999/xlink" x="0px" y="0px"
	 viewBox="0 0 2500 1768.7" style="enable-background:new 0 0 2500 1768.7;" xml:space="preserve">
<g>
	<path d="M2500,29.8c0,525.7,0,1213.2,0,1738.9c-833.3,0-1666.7,0-2500,0C0,1350,0,771.4,0,353.4c2.8-0.6,5.7-1.2,8.5-1.7
		c47.7-11.5,96.6-20.2,142.7-36.3c59.7-20.7,117.7-46.6,175.6-72c69.3-30.5,137-63.9,205.8-94.4C687.2,80.4,849.2,39.6,1016.9,18.3
		C1090.8,9,1165.3,4.4,1240.3,1c86.4-3.5,172.2,2.3,257.5,15.5c88.7,13.8,177.4,27.6,266,40.3c79.6,11.5,159.2,16.7,239.9,19
		c80.2,1.7,160.3,0.6,239.9-8.6c67.1-7.5,133.6-17.9,200.1-27.1C2462.5,36.7,2481.2,33.2,2500,29.8z"/>
</g>
</svg>
