<?xml version="1.0" encoding="utf-8"?>
<!-- Generator: Adobe Illustrator 22.0.1, SVG Export Plug-In . SVG Version: 6.00 Build 0)  -->
<svg version="1.1" id="Layer_1" xmlns="http://www.w3.org/2000/svg" xmlns:xlink="http://www.w3.org/1999/xlink" x="0px" y="0px"
	 viewBox="0 0 4439.8 2325.5" style="enable-background:new 0 0 4439.8 2325.5;" xml:space="preserve">
<g>
	<path d="M0,2285C0,1570.7,0,714.3,0,0c1479.8,0,2959.6,0,4439.8,0c0,568.6,0,1277.5,0,1845.2c-5.3,1-10.2,1.7-14.8,2.6
		c-84.8,16-171.4,27.2-253.5,49c-106.1,28.2-209.4,63.1-312.4,98c-122.7,41.3-243,87-365.7,128.5
		c-274.8,93.2-562.8,148.8-859.7,177.7c-131.7,12.9-263.7,19.1-396.2,23.2c-153.6,4.5-305.9-2.9-457.6-21
		c-157.2-18.9-314.5-37.5-472.1-54.7c-140.9-15.3-283.1-22.9-425.5-25.6c-142.5-2.4-285-0.5-426.5,11.7
		c-118.7,10.3-237.1,23.9-355.6,36.8C66.3,2275.2,33.3,2280.5,0,2285z"/>
</g>
</svg>
