<?xml version="1.0" encoding="utf-8"?>
<!-- Generator: Adobe Illustrator 22.0.1, SVG Export Plug-In . SVG Version: 6.00 Build 0)  -->
<svg version="1.1" id="Layer_1" xmlns="http://www.w3.org/2000/svg" xmlns:xlink="http://www.w3.org/1999/xlink" x="0px" y="0px"
	 viewBox="0 0 1440 460.9" style="enable-background:new 0 0 1440 460.9;" xml:space="preserve">
<style type="text/css">
	.st0{fill:#E9E0CA;}
</style>
<g>
	<path class="st0" d="M1440,459.9c0-226.7,0-221.3,0-448c-28.5,7.9-57.4,13.2-86.7,16.4c-35.9,3.8-71.8,3.8-107.7,0.2
		c-35.2-3.5-69.7-10.9-104.2-18.1c-25.1-5.3-50.2-11.2-76-10.3c-25.8,0.9-51.6,2-77.2,5C929.3,11.9,873.7,29.7,822,58.8
		c-23,13-45.2,27.5-68.2,40.6c-20.5,11.6-40.9,24-62.7,32.9c-52.9,21.6-108,27.5-164,14.4c-29.8-6.9-59.1-16-88.5-24.4
		c-38.1-10.9-76-21.9-116.2-22.9c-49.3-1.2-96.4,7-140.7,29.2c-33.2,16.7-62.9,38.7-92.5,60.8c-25.2,18.8-50.6,105.4-78,121
		c-3.6,2-7.4,3.7-11.1,5.5c0,148.3,0-3.3,0,145c329.3,0,658.7,0,988,0c2.1-0.2,4.3-0.5,6.4-0.5c129.6-0.1,259.1-0.1,388.7-0.2
		C1402,460.2,1421,460,1440,459.9z"/>
	<path class="st0" d="M1440,454.9c-19,0.1-38,0.2-56.9,0.2c-129.6,0.1-259.1,0.1-388.7,0.2c-2.1,0-4.3,0.4-6.4,0.5
		c149.2,0,298.3,0,447.5,0C1437,455.9,1438.5,455.3,1440,454.9z"/>
</g>
</svg>
