<?xml version="1.0" encoding="utf-8"?>
<!-- Generator: Adobe Illustrator 22.0.1, SVG Export Plug-In . SVG Version: 6.00 Build 0)  -->
<svg version="1.1" id="Layer_1" xmlns="http://www.w3.org/2000/svg" xmlns:xlink="http://www.w3.org/1999/xlink" x="0px" y="0px"
	 viewBox="0 0 93 63.4" style="enable-background:new 0 0 93 63.4;" xml:space="preserve">
<style type="text/css">
	.st0{fill:#FAC39A;}
</style>
<g>
	<g>
		<path class="st0" d="M71.9,0C60.2,0,50.7,9.5,50.7,21.1c0,11.5,9.2,20.9,20.7,21.1c-5.3,5.2-12.6,8.5-20.7,8.5v12.7
			C74.1,63.4,93,44.5,93,21.1C93,9.5,83.5,0,71.9,0z M21.1,0C9.5,0,0,9.5,0,21.1C0,32.7,9.2,42,20.7,42.3C15.4,47.5,8.1,50.7,0,50.7
			v12.7c23.3,0,42.3-18.9,42.3-42.3C42.3,9.5,32.8,0,21.1,0z"/>
	</g>
</g>
</svg>
